<svg version="1.1" x="0" y="0" id="i2k5xy0l1" diagram-revision="11" width="1289" height="928.85" xmlns="http://www.w3.org/2000/svg" xmlns:xml="http://www.w3.org/XML/1998/namespace" xmlns:xlink="http://www.w3.org/1999/xlink">
  <g id="Class-i2rei9o0-ko12" transform="translate(564,33.800000000000004)">
    <desc>root/umlClass/class?version=3&amp;author=Cinergix</desc>
    <g id="image">
      <g id="graphics">
        
        <rect x="1" y="1" width="201" height="31" fill="none" stroke="#5e5ca7" stroke-width="2" stroke-opacity="0" stroke-linejoin="round" stroke-linecap="round"/>
        <rect x="1" y="32" width="201" height="78" fill="none" stroke="#5e5ca7" stroke-width="2" stroke-opacity="0" stroke-linejoin="round" stroke-linecap="round"/>
        <rect x="1" y="110" width="201" height="89" fill="none" stroke="#5e5ca7" stroke-width="2" stroke-opacity="0" stroke-linejoin="round" stroke-linecap="round"/>
        <defs>
          <linearGradient id="LFFFFFF0" x1="0%" y1="0%" x2="100%" y2="0%">
            <stop offset="0%" style="stop-color:#FFFFFF;stop-opacity:0.8"/>
            <stop offset="100%" style="stop-color:#FAFAFA;stop-opacity:1"/>
          </linearGradient>
        </defs>
        <rect x="1" y="1" width="201" height="198" fill="url(#LFFFFFF0)" stroke="#5e5ca7" stroke-width="2" stroke-linejoin="round" stroke-linecap="round"/>
        <path d="M 1 32 L 202 32 M 1 110 L 202 110 " fill="none" stroke="#5e5ca7" stroke-width="2" stroke-linejoin="round" stroke-linecap="round"/>
      </g>
      <text x="0" y="0" width="28.3" height="16.85" transform="translate(86.5,4)">
        <tspan x="1.4" y="11.400043296813966" style="font-family:Arial;font-size:12px;fill:#000000;font-weight:bold;">User</tspan>
      </text>
      <text x="0" y="0" width="61.15" height="16.85" transform="translate(6,35)">
        <tspan x="1.4" y="11.450043296813964" style="font-family:Arial;font-size:12px;fill:#000000;">- username</tspan>
      </text>
      <text x="0" y="0" width="38.3" height="16.85" transform="translate(6,53)">
        <tspan x="1.4" y="11.400043296813966" style="font-family:Arial;font-size:12px;fill:#000000;">- email</tspan>
      </text>
      <text x="0" y="0" width="62.55" height="16.85" transform="translate(6,71)">
        <tspan x="1.4" y="11.400043296813966" style="font-family:Arial;font-size:12px;fill:#000000;">- password</tspan>
      </text>
      <text x="0" y="0" width="44" height="16.85" transform="translate(6,89)">
        <tspan x="1.4" y="11.450043296813964" style="font-family:Arial;font-size:12px;fill:#000000;">- userID</tspan>
      </text>
      <text x="0" y="0" width="75.45" height="16.85" transform="translate(6,113)">
        <tspan x="1.4" y="11.400043296813966" style="font-family:Arial;font-size:12px;fill:#000000;">+ viewProfile()</tspan>
      </text>
      <text x="0" y="0" width="51.15" height="16.85" transform="translate(6,131)">
        <tspan x="1.4" y="11.400043296813966" style="font-family:Arial;font-size:12px;fill:#000000;">+ signIn()</tspan>
      </text>
      <text x="0" y="0" width="59.7" height="16.85" transform="translate(6,149)">
        <tspan x="1.4" y="11.450043296813964" style="font-family:Arial;font-size:12px;fill:#000000;">+ signOut()</tspan>
      </text>
    </g>
  </g>
  <g id="Interface-i2rei9o0-ko14" transform="translate(44,48.85)">
    <desc>root/umlClass/interface?version=3&amp;author=Cinergix</desc>
    <g id="image">
      <g id="graphics">
        
        <rect x="1" y="1" width="201.00089538097382" height="42" fill="none" stroke="#5e5ca7" stroke-width="2" stroke-opacity="0" stroke-linejoin="round" stroke-linecap="round"/>
        <rect x="1" y="43" width="201.00089538097382" height="52" fill="none" stroke="#5e5ca7" stroke-width="2" stroke-opacity="0" stroke-linejoin="round" stroke-linecap="round"/>
        <rect x="1" y="95" width="201.00089538097382" height="52" fill="none" stroke="#5e5ca7" stroke-width="2" stroke-opacity="0" stroke-linejoin="round" stroke-linecap="round"/>
        <defs>
          <linearGradient id="LFFFFFF0" x1="0%" y1="0%" x2="100%" y2="0%">
            <stop offset="0%" style="stop-color:#FFFFFF;stop-opacity:0.8"/>
            <stop offset="100%" style="stop-color:#FAFAFA;stop-opacity:1"/>
          </linearGradient>
        </defs>
        <rect x="1" y="1" width="201.00089538097382" height="146" fill="url(#LFFFFFF0)" stroke="#5e5ca7" stroke-width="2" stroke-linejoin="round" stroke-linecap="round"/>
        <path d="M 1 43 L 202.00089538097382 43 M 1 95 L 202.00089538097382 95 " fill="none" stroke="#5e5ca7" stroke-width="2" stroke-linejoin="round" stroke-linecap="round"/>
      </g>
      <text x="0" y="0" width="78.3" height="16.85" transform="translate(60.5,4)">
        <tspan x="1.45" y="11.450043296813964" style="font-family:Arial;font-size:12px;fill:#000000;font-weight:bold;">&lt;&lt;Interface&gt;&gt;</tspan>
      </text>
      <text x="0" y="0" width="34" height="16.85" transform="translate(83.5,22)">
        <tspan x="1.45" y="11.400043296813966" style="font-family:Arial;font-size:12px;fill:#000000;font-weight:bold;">Rides</tspan>
      </text>
      <text x="0" y="0" width="65.45" height="16.85" transform="translate(6,98)">
        <tspan x="1.45" y="11.400043296813966" style="font-family:Arial;font-size:12px;fill:#000000;">+ postRide()</tspan>
      </text>
    </g>
  </g>
  <g id="Class-i2rei9o0-ko15" transform="translate(44,353.8)">
    <desc>root/umlClass/class?version=3&amp;author=Cinergix</desc>
    <g id="image">
      <g id="graphics">
        
        <rect x="1" y="1" width="201" height="31" fill="none" stroke="#5e5ca7" stroke-width="2" stroke-opacity="0" stroke-linejoin="round" stroke-linecap="round"/>
        <rect x="1" y="32" width="201" height="132" fill="none" stroke="#5e5ca7" stroke-width="2" stroke-opacity="0" stroke-linejoin="round" stroke-linecap="round"/>
        <rect x="1" y="164" width="201" height="52" fill="none" stroke="#5e5ca7" stroke-width="2" stroke-opacity="0" stroke-linejoin="round" stroke-linecap="round"/>
        <defs>
          <linearGradient id="LFFFFFF0" x1="0%" y1="0%" x2="100%" y2="0%">
            <stop offset="0%" style="stop-color:#FFFFFF;stop-opacity:0.8"/>
            <stop offset="100%" style="stop-color:#FAFAFA;stop-opacity:1"/>
          </linearGradient>
        </defs>
        <rect x="1" y="1" width="201" height="215" fill="url(#LFFFFFF0)" stroke="#5e5ca7" stroke-width="2" stroke-linejoin="round" stroke-linecap="round"/>
        <path d="M 1 32 L 202 32 M 1 164 L 202 164 " fill="none" stroke="#5e5ca7" stroke-width="2" stroke-linejoin="round" stroke-linecap="round"/>
      </g>
      <text x="0" y="0" width="28.3" height="16.85" transform="translate(86.5,4)">
        <tspan x="1.45" y="11.400043296813966" style="font-family:Arial;font-size:12px;fill:#000000;font-weight:bold;">Ride</tspan>
      </text>
      <text x="0" y="0" width="41.15" height="16.85" transform="translate(6,35)">
        <tspan x="1.45" y="11.450043296813964" style="font-family:Arial;font-size:12px;fill:#000000;">- rideID</tspan>
      </text>
      <text x="0" y="0" width="44" height="16.85" transform="translate(6,53)">
        <tspan x="1.45" y="11.400043296813966" style="font-family:Arial;font-size:12px;fill:#000000;">- source</tspan>
      </text>
      <text x="0" y="0" width="68.3" height="16.85" transform="translate(6,71)">
        <tspan x="1.45" y="11.400043296813966" style="font-family:Arial;font-size:12px;fill:#000000;">- destination</tspan>
      </text>
      <text x="0" y="0" width="78.3" height="16.85" transform="translate(6,89)">
        <tspan x="1.45" y="11.450043296813964" style="font-family:Arial;font-size:12px;fill:#000000;">- authorUserID</tspan>
      </text>
      <text x="0" y="0" width="32.55" height="16.85" transform="translate(6,107)">
        <tspan x="1.45" y="11.400043296813966" style="font-family:Arial;font-size:12px;fill:#000000;">- date</tspan>
      </text>
      <text x="0" y="0" width="32.55" height="16.85" transform="translate(6,125)">
        <tspan x="1.45" y="11.450043296813964" style="font-family:Arial;font-size:12px;fill:#000000;">- time</tspan>
      </text>
      <text x="0" y="0" width="32.55" height="16.85" transform="translate(6,143)">
        <tspan x="1.45" y="11.400043296813966" style="font-family:Arial;font-size:12px;fill:#000000;">- map</tspan>
      </text>
      <text x="0" y="0" width="6.85" height="15.45" transform="translate(6,167)">
        <tspan x="1.45" y="9.971465682983398" style="font-family:Times Roman;font-size:12px;fill:#000000;"></tspan>
      </text>
    </g>
  </g>
  <g id="Class-i2rei9o0-ko16" transform="translate(334,278.85)">
    <desc>root/umlClass/class?version=3&amp;author=Cinergix</desc>
    <g id="image">
      <g id="graphics">
        
        <rect x="1" y="1" width="201" height="31" fill="none" stroke="#5e5ca7" stroke-width="2" stroke-opacity="0" stroke-linejoin="round" stroke-linecap="round"/>
        <rect x="1" y="32" width="201" height="78" fill="none" stroke="#5e5ca7" stroke-width="2" stroke-opacity="0" stroke-linejoin="round" stroke-linecap="round"/>
        <rect x="1" y="110" width="201" height="89" fill="none" stroke="#5e5ca7" stroke-width="2" stroke-opacity="0" stroke-linejoin="round" stroke-linecap="round"/>
        <defs>
          <linearGradient id="LFFFFFF0" x1="0%" y1="0%" x2="100%" y2="0%">
            <stop offset="0%" style="stop-color:#FFFFFF;stop-opacity:0.8"/>
            <stop offset="100%" style="stop-color:#FAFAFA;stop-opacity:1"/>
          </linearGradient>
        </defs>
        <rect x="1" y="1" width="201" height="198" fill="url(#LFFFFFF0)" stroke="#5e5ca7" stroke-width="2" stroke-linejoin="round" stroke-linecap="round"/>
        <path d="M 1 32 L 202 32 M 1 110 L 202 110 " fill="none" stroke="#5e5ca7" stroke-width="2" stroke-linejoin="round" stroke-linecap="round"/>
      </g>
      <text x="0" y="0" width="72.55" height="16.85" transform="translate(63,4)">
        <tspan x="1.45" y="11.450043296813964" style="font-family:Arial;font-size:12px;fill:#000000;font-weight:bold;">RequestRide</tspan>
      </text>
      <text x="0" y="0" width="59.7" height="16.85" transform="translate(6,35)">
        <tspan x="1.45" y="11.400043296813966" style="font-family:Arial;font-size:12px;fill:#000000;">- requestID</tspan>
      </text>
      <text x="0" y="0" width="68.3" height="16.85" transform="translate(6,53)">
        <tspan x="1.45" y="11.450043296813964" style="font-family:Arial;font-size:12px;fill:#000000;">- fromUserID</tspan>
      </text>
      <text x="0" y="0" width="55.45" height="16.85" transform="translate(6,71)">
        <tspan x="1.45" y="11.400043296813966" style="font-family:Arial;font-size:12px;fill:#000000;">- toUserID</tspan>
      </text>
      <text x="0" y="0" width="41.15" height="16.85" transform="translate(6,89)">
        <tspan x="1.45" y="11.400043296813966" style="font-family:Arial;font-size:12px;fill:#000000;">- status</tspan>
      </text>
      <text x="0" y="0" width="99.7" height="16.85" transform="translate(6,113)">
        <tspan x="1.45" y="11.450043296813964" style="font-family:Arial;font-size:12px;fill:#000000;">+ declineRequest()</tspan>
      </text>
      <text x="0" y="0" width="96.85" height="16.85" transform="translate(6,131)">
        <tspan x="1.45" y="11.400043296813966" style="font-family:Arial;font-size:12px;fill:#000000;">+ acceptRequest()</tspan>
      </text>
    </g>
  </g>
  <g id="Connector-i2rei9o0-ko17" transform="translate(-61,-11.15)">
    <g id="graphics">
      
      <path d="M 310.02142857142854 105 L 466.51116197620115 105 L 466.51116197620115 104.97142857142859 L 625 104.97142857142859 " fill="none" stroke="#5e5ca7" stroke-width="2" stroke-linejoin="round" stroke-linecap="round"/>
    </g>
    <rect fill="#ffffff" x="0" y="0" width="5.7" height="14.3" transform="translate(325,95.35)"/>
    <text x="0" y="0" width="9.7" height="18.3" transform="translate(325,95.35)">
      <tspan x="4.3" y="12.828620910644531" style="font-family:Arial;font-size:12px;fill:#000000;font-weight:bold;">1</tspan>
    </text>
    <rect fill="#ffffff" x="0" y="0" width="5.7" height="14.3" transform="translate(600.3,95.3)"/>
    <text x="0" y="0" width="9.7" height="18.3" transform="translate(600.3,95.3)">
      <tspan x="4.3" y="12.828620910644531" style="font-family:Arial;font-size:12px;fill:#000000;font-weight:bold;">1</tspan>
    </text>
  </g>
  <g id="Connector-i2rei9o0-ko18" transform="translate(-61,-11.15)">
    <g id="graphics">
      
      <path d="M 205.02142857142852 210 L 205.02142857142852 286.48571428571427 L 205 286.48571428571427 L 205 364.97142857142853 " fill="none" stroke="#5e5ca7" stroke-width="2" stroke-linejoin="round" stroke-linecap="round"/>
    </g>
    <rect fill="#ffffff" x="0" y="0" width="17.15" height="14.3" transform="translate(194.4,224.5)"/>
    <text x="0" y="0" width="21.1" height="18.3" transform="translate(194.4,224.5)">
      <tspan x="4.3" y="12.87862091064453" style="font-family:Arial;font-size:12px;fill:#000000;font-weight:bold;">0..*</tspan>
    </text>
    <rect fill="#ffffff" x="0" y="0" width="17.15" height="12.85" transform="translate(194.4,332.6)"/>
    <text x="0" y="0" width="21.1" height="16.85" transform="translate(194.4,332.6)">
      <tspan x="4.3" y="11.450043296813964" style="font-family:Arial;font-size:12px;fill:#000000;">1..*</tspan>
    </text>
  </g>
  <g id="Connector-i2rei9o0-ko19" transform="translate(-61,-11.15)">
    <g id="graphics">
      
      <path d="M 625 144.97142857142856 L 495.00000000000006 144.97142857142856 L 495.00000000000006 290 " fill="none" stroke="#5e5ca7" stroke-width="2" stroke-linejoin="round" stroke-linecap="round"/>
    </g>
    <rect fill="#ffffff" x="0" y="0" width="5.7" height="14.3" transform="translate(600.3,135.3)"/>
    <text x="0" y="0" width="9.7" height="18.3" transform="translate(600.3,135.3)">
      <tspan x="4.3" y="12.828620910644531" style="font-family:Arial;font-size:12px;fill:#000000;font-weight:bold;">1</tspan>
    </text>
    <rect fill="#ffffff" x="0" y="0" width="5.7" height="14.3" transform="translate(490.15,256.2)"/>
    <text x="0" y="0" width="9.7" height="18.3" transform="translate(490.15,256.2)">
      <tspan x="4.3" y="12.828620910644531" style="font-family:Arial;font-size:12px;fill:#000000;font-weight:bold;">1</tspan>
    </text>
  </g>
  <g id="Connector-i2rei9o0-ko20" transform="translate(-61,-11.15)">
    <g id="graphics">
      
      <path d="M 310 429.97142857142853 L 351.49999999999994 429.97142857142853 L 351.49999999999994 430 L 395 430 " fill="none" stroke="#5e5ca7" stroke-width="2" stroke-linejoin="round" stroke-linecap="round"/>
    </g>
    <rect fill="#ffffff" x="0" y="0" width="17.15" height="14.3" transform="translate(324.95,420.3)"/>
    <text x="0" y="0" width="21.1" height="18.3" transform="translate(324.95,420.3)">
      <tspan x="4.3" y="12.87862091064453" style="font-family:Arial;font-size:12px;fill:#000000;font-weight:bold;">0..*</tspan>
    </text>
    <rect fill="#ffffff" x="0" y="0" width="17.15" height="14.3" transform="translate(358.85,420.35)"/>
    <text x="0" y="0" width="21.1" height="18.3" transform="translate(358.85,420.35)">
      <tspan x="4.3" y="12.87862091064453" style="font-family:Arial;font-size:12px;fill:#000000;font-weight:bold;">0..*</tspan>
    </text>
  </g>
  <g id="Class-i2rei9o0-ko21" transform="translate(564,443.85)">
    <desc>root/umlClass/class?version=3&amp;author=Cinergix</desc>
    <g id="image">
      <g id="graphics">
        
        <rect x="1" y="1" width="201" height="31" fill="none" stroke="#5e5ca7" stroke-width="2" stroke-opacity="0" stroke-linejoin="round" stroke-linecap="round"/>
        <rect x="1" y="32" width="201" height="60" fill="none" stroke="#5e5ca7" stroke-width="2" stroke-opacity="0" stroke-linejoin="round" stroke-linecap="round"/>
        <rect x="1" y="92" width="201" height="107" fill="none" stroke="#5e5ca7" stroke-width="2" stroke-opacity="0" stroke-linejoin="round" stroke-linecap="round"/>
        <defs>
          <linearGradient id="LFFFFFF0" x1="0%" y1="0%" x2="100%" y2="0%">
            <stop offset="0%" style="stop-color:#FFFFFF;stop-opacity:0.8"/>
            <stop offset="100%" style="stop-color:#FAFAFA;stop-opacity:1"/>
          </linearGradient>
        </defs>
        <rect x="1" y="1" width="201" height="198" fill="url(#LFFFFFF0)" stroke="#5e5ca7" stroke-width="2" stroke-linejoin="round" stroke-linecap="round"/>
        <path d="M 1 32 L 202 32 M 1 92 L 202 92 " fill="none" stroke="#5e5ca7" stroke-width="2" stroke-linejoin="round" stroke-linecap="round"/>
      </g>
      <text x="0" y="0" width="38.3" height="16.85" transform="translate(81,4)">
        <tspan x="1.45" y="11.400043296813966" style="font-family:Arial;font-size:12px;fill:#000000;font-weight:bold;">Rating</tspan>
      </text>
      <text x="0" y="0" width="38.3" height="16.85" transform="translate(6,35)">
        <tspan x="1.4" y="11.450043296813964" style="font-family:Arial;font-size:12px;fill:#000000;">- rating</tspan>
      </text>
      <text x="0" y="0" width="56.85" height="16.85" transform="translate(6,53)">
        <tspan x="1.4" y="11.400043296813966" style="font-family:Arial;font-size:12px;fill:#000000;">- minValue</tspan>
      </text>
      <text x="0" y="0" width="59.7" height="16.85" transform="translate(6,71)">
        <tspan x="1.4" y="11.400043296813966" style="font-family:Arial;font-size:12px;fill:#000000;">- maxValue</tspan>
      </text>
      <text x="0" y="0" width="68.3" height="16.85" transform="translate(6,95)">
        <tspan x="1.4" y="11.450043296813964" style="font-family:Arial;font-size:12px;fill:#000000;">+ rate(value)</tspan>
      </text>
    </g>
  </g>
  <g id="Connector-i2rei9o0-ko22" transform="translate(-61,-11.15)">
    <g id="graphics">
      
      <path d="M 685 244.97142857142856 L 685 455.00000000000006 " fill="none" stroke="#5e5ca7" stroke-width="2" stroke-linejoin="round" stroke-linecap="round"/>
    </g>
    <rect fill="#ffffff" x="0" y="0" width="5.7" height="14.3" transform="translate(680.15,259.45)"/>
    <text x="0" y="0" width="9.7" height="18.3" transform="translate(680.15,259.45)">
      <tspan x="4.3" y="12.87862091064453" style="font-family:Arial;font-size:12px;fill:#000000;font-weight:bold;">1</tspan>
    </text>
    <rect fill="#ffffff" x="0" y="0" width="5.7" height="14.3" transform="translate(680.15,421.2)"/>
    <text x="0" y="0" width="9.7" height="18.3" transform="translate(680.15,421.2)">
      <tspan x="4.3" y="12.828620910644531" style="font-family:Arial;font-size:12px;fill:#000000;font-weight:bold;">1</tspan>
    </text>
  </g>
  <g id="Connector-i2rei9o0-ko23" transform="translate(-61,-11.15)">
    <g id="graphics">
      
      <path d="M 310 514.9714285714285 L 466.49999999999994 514.9714285714285 L 466.49999999999994 515.0000000000001 L 625 515.0000000000001 " fill="none" stroke="#5e5ca7" stroke-width="2" stroke-linejoin="round" stroke-linecap="round"/>
    </g>
    <rect fill="#ffffff" x="0" y="0" width="5.7" height="14.3" transform="translate(325,505.3)"/>
    <text x="0" y="0" width="9.7" height="18.3" transform="translate(325,505.3)">
      <tspan x="4.3" y="12.828620910644531" style="font-family:Arial;font-size:12px;fill:#000000;font-weight:bold;">1</tspan>
    </text>
    <rect fill="#ffffff" x="0" y="0" width="5.7" height="14.3" transform="translate(600.3,505.35)"/>
    <text x="0" y="0" width="9.7" height="18.3" transform="translate(600.3,505.35)">
      <tspan x="4.3" y="12.828620910644531" style="font-family:Arial;font-size:12px;fill:#000000;font-weight:bold;">1</tspan>
    </text>
  </g>
  <g id="Class-i2rei9o0-ko24" transform="translate(839,58.85)">
    <desc>root/umlClass/class?version=3&amp;author=Cinergix</desc>
    <g id="image">
      <g id="graphics">
        
        <rect x="1" y="1" width="201" height="31" fill="none" stroke="#5e5ca7" stroke-width="2" stroke-opacity="0" stroke-linejoin="round" stroke-linecap="round"/>
        <rect x="1" y="32" width="201" height="168" fill="none" stroke="#5e5ca7" stroke-width="2" stroke-opacity="0" stroke-linejoin="round" stroke-linecap="round"/>
        <rect x="1" y="200" width="201" height="52" fill="none" stroke="#5e5ca7" stroke-width="2" stroke-opacity="0" stroke-linejoin="round" stroke-linecap="round"/>
        <defs>
          <linearGradient id="LFFFFFF0" x1="0%" y1="0%" x2="100%" y2="0%">
            <stop offset="0%" style="stop-color:#FFFFFF;stop-opacity:0.8"/>
            <stop offset="100%" style="stop-color:#FAFAFA;stop-opacity:1"/>
          </linearGradient>
        </defs>
        <rect x="1" y="1" width="201" height="251" fill="url(#LFFFFFF0)" stroke="#5e5ca7" stroke-width="2" stroke-linejoin="round" stroke-linecap="round"/>
        <path d="M 1 32 L 202 32 M 1 200 L 202 200 " fill="none" stroke="#5e5ca7" stroke-width="2" stroke-linejoin="round" stroke-linecap="round"/>
      </g>
      <text x="0" y="0" width="38.3" height="16.85" transform="translate(81,4)">
        <tspan x="1.4" y="11.450043296813964" style="font-family:Arial;font-size:12px;fill:#000000;font-weight:bold;">Profile</tspan>
      </text>
      <text x="0" y="0" width="25.45" height="16.85" transform="translate(6,35)">
        <tspan x="1.45" y="11.400043296813966" style="font-family:Arial;font-size:12px;fill:#000000;">- bio</tspan>
      </text>
      <text x="0" y="0" width="42.55" height="16.85" transform="translate(6,53)">
        <tspan x="1.45" y="11.450043296813964" style="font-family:Arial;font-size:12px;fill:#000000;">- avatar</tspan>
      </text>
      <text x="0" y="0" width="48.3" height="16.85" transform="translate(6,71)">
        <tspan x="1.45" y="11.400043296813966" style="font-family:Arial;font-size:12px;fill:#000000;">- studyAt</tspan>
      </text>
      <text x="0" y="0" width="45.45" height="16.85" transform="translate(6,89)">
        <tspan x="1.45" y="11.400043296813966" style="font-family:Arial;font-size:12px;fill:#000000;">- workAt</tspan>
      </text>
      <text x="0" y="0" width="28.3" height="16.85" transform="translate(6,107)">
        <tspan x="1.45" y="11.450043296813964" style="font-family:Arial;font-size:12px;fill:#000000;">- sex</tspan>
      </text>
      <text x="0" y="0" width="58.3" height="16.85" transform="translate(6,125)">
        <tspan x="1.45" y="12.850043296813965" style="font-family:Arial;font-size:12px;fill:#000000;">- webLinks</tspan>
      </text>
      <text x="0" y="0" width="56.85" height="16.85" transform="translate(6,143)">
        <tspan x="1.45" y="11.450043296813964" style="font-family:Arial;font-size:12px;fill:#000000;">- carModel</tspan>
      </text>
      <text x="0" y="0" width="68.3" height="16.85" transform="translate(6,161)">
        <tspan x="1.45" y="11.400043296813966" style="font-family:Arial;font-size:12px;fill:#000000;">- dateOfBirth</tspan>
      </text>
      <text x="0" y="0" width="46.85" height="16.85" transform="translate(6,179)">
        <tspan x="1.45" y="11.400043296813966" style="font-family:Arial;font-size:12px;fill:#000000;">- privacy</tspan>
      </text>
      <text x="0" y="0" width="71.15" height="16.85" transform="translate(6,203)">
        <tspan x="1.45" y="11.450043296813964" style="font-family:Arial;font-size:12px;fill:#000000;">+ editProfile()</tspan>
      </text>
    </g>
  </g>
  <g id="Connector-i2rei9o0-ko25" transform="translate(-61,-11.15)">
    <g id="graphics">
      
      <path d="M 830 144.97142857142856 L 864 144.97142857142856 L 864 145 L 900.0000000000001 145 " fill="none" stroke="#5e5ca7" stroke-width="2" stroke-linejoin="round" stroke-linecap="round"/>
    </g>
    <g id="toIcon" transform="translate(900,145) rotate(90)">
      <polygon fill="#000000" stroke="#5e5ca7" points="5,6 0,0 -5,6 0,12 " style="stroke-width:2;stroke:#5e5ca7;" stroke-width="2"/>
    </g>
  </g>
  <g id="Class-i2rei9o0-ko26" transform="translate(1079,63.85)">
    <desc>root/umlClass/class?version=3&amp;author=Cinergix</desc>
    <g id="image">
      <g id="graphics">
        
        <rect x="1" y="1" width="201.00089538097382" height="31" fill="none" stroke="#5e5ca7" stroke-width="2" stroke-opacity="0" stroke-linejoin="round" stroke-linecap="round"/>
        <rect x="1" y="32" width="201.00089538097382" height="60" fill="none" stroke="#5e5ca7" stroke-width="2" stroke-opacity="0" stroke-linejoin="round" stroke-linecap="round"/>
        <rect x="1" y="92" width="201.00089538097382" height="52" fill="none" stroke="#5e5ca7" stroke-width="2" stroke-opacity="0" stroke-linejoin="round" stroke-linecap="round"/>
        <defs>
          <linearGradient id="LFFFFFF0" x1="0%" y1="0%" x2="100%" y2="0%">
            <stop offset="0%" style="stop-color:#FFFFFF;stop-opacity:0.8"/>
            <stop offset="100%" style="stop-color:#FAFAFA;stop-opacity:1"/>
          </linearGradient>
        </defs>
        <rect x="1" y="1" width="201.00089538097382" height="143" fill="url(#LFFFFFF0)" stroke="#5e5ca7" stroke-width="2" stroke-linejoin="round" stroke-linecap="round"/>
        <path d="M 1 32 L 202.00089538097382 32 M 1 92 L 202.00089538097382 92 " fill="none" stroke="#5e5ca7" stroke-width="2" stroke-linejoin="round" stroke-linecap="round"/>
      </g>
      <text x="0" y="0" width="44" height="16.85" transform="translate(78,4)">
        <tspan x="1.45" y="11.400043296813966" style="font-family:Arial;font-size:12px;fill:#000000;font-weight:bold;">Friends</tspan>
      </text>
      <text x="0" y="0" width="71.15" height="16.85" transform="translate(6,35)">
        <tspan x="1.45" y="11.450043296813964" style="font-family:Arial;font-size:12px;fill:#000000;">- friendshipID</tspan>
      </text>
      <text x="0" y="0" width="44" height="16.85" transform="translate(6,53)">
        <tspan x="1.45" y="11.400043296813966" style="font-family:Arial;font-size:12px;fill:#000000;">- userID</tspan>
      </text>
      <text x="0" y="0" width="72.55" height="16.85" transform="translate(6,71)">
        <tspan x="1.45" y="11.400043296813966" style="font-family:Arial;font-size:12px;fill:#000000;">- otherUserID</tspan>
      </text>
      <text x="0" y="0" width="6.85" height="15.45" transform="translate(6,95)">
        <tspan x="1.45" y="10.021465682983397" style="font-family:Times Roman;font-size:12px;fill:#000000;"></tspan>
      </text>
    </g>
  </g>
  <g id="Connector-i2rei9o0-ko27" transform="translate(-61,-11.15)">
    <g id="graphics">
      
      <path d="M 765 44.97142857142857 L 765 20 L 1200 20 L 1200 75 " fill="none" stroke="#5e5ca7" stroke-width="2" stroke-linejoin="round" stroke-linecap="round"/>
    </g>
    <rect fill="#ffffff" x="0" y="0" width="5.7" height="14.3" transform="translate(760.15,11.15)"/>
    <text x="0" y="0" width="9.7" height="18.3" transform="translate(760.15,11.15)">
      <tspan x="4.3" y="12.828620910644531" style="font-family:Arial;font-size:12px;fill:#000000;font-weight:bold;">1</tspan>
    </text>
    <rect fill="#ffffff" x="0" y="0" width="17.15" height="14.3" transform="translate(1189.4,41.15)"/>
    <text x="0" y="0" width="21.1" height="18.3" transform="translate(1189.4,41.15)">
      <tspan x="4.3" y="12.828620910644531" style="font-family:Arial;font-size:12px;fill:#000000;font-weight:bold;">0..*</tspan>
    </text>
  </g>
  <g id="Interface-i2rei9o0-ko29" transform="translate(794,443.85)">
    <desc>root/umlClass/interface?version=3&amp;author=Cinergix</desc>
    <g id="image">
      <g id="graphics">
        
        <rect x="1" y="1" width="201.00089538097382" height="31" fill="none" stroke="#5e5ca7" stroke-width="2" stroke-opacity="0" stroke-linejoin="round" stroke-linecap="round"/>
        <rect x="1" y="32" width="201.00089538097382" height="52" fill="none" stroke="#5e5ca7" stroke-width="2" stroke-opacity="0" stroke-linejoin="round" stroke-linecap="round"/>
        <rect x="1" y="84" width="201.00089538097382" height="52" fill="none" stroke="#5e5ca7" stroke-width="2" stroke-opacity="0" stroke-linejoin="round" stroke-linecap="round"/>
        <defs>
          <linearGradient id="LFFFFFF0" x1="0%" y1="0%" x2="100%" y2="0%">
            <stop offset="0%" style="stop-color:#FFFFFF;stop-opacity:0.8"/>
            <stop offset="100%" style="stop-color:#FAFAFA;stop-opacity:1"/>
          </linearGradient>
        </defs>
        <rect x="1" y="1" width="201.00089538097382" height="135" fill="url(#LFFFFFF0)" stroke="#5e5ca7" stroke-width="2" stroke-linejoin="round" stroke-linecap="round"/>
        <path d="M 1 32 L 202.00089538097382 32 M 1 84 L 202.00089538097382 84 " fill="none" stroke="#5e5ca7" stroke-width="2" stroke-linejoin="round" stroke-linecap="round"/>
      </g>
      <text x="0" y="0" width="64" height="16.85" transform="translate(68,4)">
        <tspan x="1.45" y="11.400043296813966" style="font-family:Arial;font-size:12px;fill:#000000;font-weight:bold;">Add Friend</tspan>
      </text>
      <text x="0" y="0" width="6.85" height="15.45" transform="translate(6,35)">
        <tspan x="1.4" y="10.021465682983397" style="font-family:Times Roman;font-size:12px;fill:#000000;"></tspan>
      </text>
      <text x="0" y="0" width="121.15" height="16.85" transform="translate(6,87)">
        <tspan x="1.4" y="11.400043296813966" style="font-family:Arial;font-size:12px;fill:#000000;">+ sendFriendRequest()</tspan>
      </text>
    </g>
  </g>
  <g id="Connector-i2rei9o0-ko30" transform="translate(-61,-11.15)">
    <g id="graphics">
      
      <path d="M 725 244.97142857142856 L 725 405 L 915.0000000000001 405 L 915.0000000000001 455.00000000000006 " fill="none" stroke="#5e5ca7" stroke-width="2" stroke-linejoin="round" stroke-linecap="round"/>
    </g>
    <rect fill="#ffffff" x="0" y="0" width="5.7" height="14.3" transform="translate(720.15,259.45)"/>
    <text x="0" y="0" width="9.7" height="18.3" transform="translate(720.15,259.45)">
      <tspan x="4.3" y="12.87862091064453" style="font-family:Arial;font-size:12px;fill:#000000;font-weight:bold;">1</tspan>
    </text>
    <rect fill="#ffffff" x="0" y="0" width="17.15" height="12.85" transform="translate(904.4,417.35)"/>
    <text x="0" y="0" width="21.1" height="16.85" transform="translate(904.4,417.35)">
      <tspan x="4.25" y="11.450043296813964" style="font-family:Arial;font-size:12px;fill:#000000;font-weight:bold;">1..*</tspan>
    </text>
  </g>
  <g id="Class-i2rei9o0-ko31" transform="translate(794,648.75)">
    <desc>root/umlClass/class?version=3&amp;author=Cinergix</desc>
    <g id="image">
      <g id="graphics">
        
        <rect x="1" y="1" width="201.00089538097382" height="31" fill="none" stroke="#5e5ca7" stroke-width="2" stroke-opacity="0" stroke-linejoin="round" stroke-linecap="round"/>
        <rect x="1" y="32" width="201.00089538097382" height="60" fill="none" stroke="#5e5ca7" stroke-width="2" stroke-opacity="0" stroke-linejoin="round" stroke-linecap="round"/>
        <rect x="1" y="92" width="201.00089538097382" height="52" fill="none" stroke="#5e5ca7" stroke-width="2" stroke-opacity="0" stroke-linejoin="round" stroke-linecap="round"/>
        <defs>
          <linearGradient id="LFFFFFF0" x1="0%" y1="0%" x2="100%" y2="0%">
            <stop offset="0%" style="stop-color:#FFFFFF;stop-opacity:0.8"/>
            <stop offset="100%" style="stop-color:#FAFAFA;stop-opacity:1"/>
          </linearGradient>
        </defs>
        <rect x="1" y="1" width="201.00089538097382" height="143" fill="url(#LFFFFFF0)" stroke="#5e5ca7" stroke-width="2" stroke-linejoin="round" stroke-linecap="round"/>
        <path d="M 1 32 L 202.00089538097382 32 M 1 92 L 202.00089538097382 92 " fill="none" stroke="#5e5ca7" stroke-width="2" stroke-linejoin="round" stroke-linecap="round"/>
      </g>
      <text x="0" y="0" width="86.85" height="16.85" transform="translate(56,4)">
        <tspan x="1.4" y="11.450043296813964" style="font-family:Arial;font-size:12px;fill:#000000;font-weight:bold;">Friend Request</tspan>
      </text>
      <text x="0" y="0" width="114" height="16.85" transform="translate(6,35)">
        <tspan x="1.4" y="11.450043296813964" style="font-family:Arial;font-size:12px;fill:#000000;">- friendshipRequestID</tspan>
      </text>
      <text x="0" y="0" width="44" height="16.85" transform="translate(6,53)">
        <tspan x="1.4" y="11.450043296813964" style="font-family:Arial;font-size:12px;fill:#000000;">- userID</tspan>
      </text>
      <text x="0" y="0" width="72.55" height="16.85" transform="translate(6,71)">
        <tspan x="1.4" y="11.450043296813964" style="font-family:Arial;font-size:12px;fill:#000000;">- otherUserID</tspan>
      </text>
      <text x="0" y="0" width="99.7" height="16.85" transform="translate(6,95)">
        <tspan x="1.4" y="11.450043296813964" style="font-family:Arial;font-size:12px;fill:#000000;">+ declineRequest()</tspan>
      </text>
      <text x="0" y="0" width="96.85" height="16.85" transform="translate(6,113)">
        <tspan x="1.4" y="11.400043296813966" style="font-family:Arial;font-size:12px;fill:#000000;">+ acceptRequest()</tspan>
      </text>
    </g>
  </g>
  <g id="Connector-i2rei9o0-ko32" transform="translate(-61,-11.15)">
    <g id="graphics">
      
      <path d="M 955.0000000000001 590 L 955.0000000000001 659.9285714285714 " fill="none" stroke="#5e5ca7" stroke-width="2" stroke-linejoin="round" stroke-linecap="round"/>
    </g>
    <rect fill="#ffffff" x="0" y="0" width="5.7" height="14.3" transform="translate(950.15,604.5)"/>
    <text x="0" y="0" width="9.7" height="18.3" transform="translate(950.15,604.5)">
      <tspan x="4.3" y="12.87862091064453" style="font-family:Arial;font-size:12px;fill:#000000;font-weight:bold;">1</tspan>
    </text>
    <rect fill="#ffffff" x="0" y="0" width="5.7" height="14.3" transform="translate(950.15,626.1)"/>
    <text x="0" y="0" width="9.7" height="18.3" transform="translate(950.15,626.1)">
      <tspan x="4.3" y="12.828620910644531" style="font-family:Arial;font-size:12px;fill:#000000;font-weight:bold;">1</tspan>
    </text>
  </g>
  <g id="Interface-i2rei9o0-ko33" transform="translate(1064,738.85)">
    <desc>root/umlClass/interface?version=3&amp;author=Cinergix</desc>
    <g id="image">
      <g id="graphics">
        
        <rect x="1" y="1" width="201" height="42" fill="none" stroke="#5e5ca7" stroke-width="2" stroke-opacity="0" stroke-linejoin="round" stroke-linecap="round"/>
        <rect x="1" y="43" width="201" height="52" fill="none" stroke="#5e5ca7" stroke-width="2" stroke-opacity="0" stroke-linejoin="round" stroke-linecap="round"/>
        <rect x="1" y="95" width="201" height="89" fill="none" stroke="#5e5ca7" stroke-width="2" stroke-opacity="0" stroke-linejoin="round" stroke-linecap="round"/>
        <defs>
          <linearGradient id="LFFFFFF0" x1="0%" y1="0%" x2="100%" y2="0%">
            <stop offset="0%" style="stop-color:#FFFFFF;stop-opacity:0.8"/>
            <stop offset="100%" style="stop-color:#FAFAFA;stop-opacity:1"/>
          </linearGradient>
        </defs>
        <rect x="1" y="1" width="201" height="183" fill="url(#LFFFFFF0)" stroke="#5e5ca7" stroke-width="2" stroke-linejoin="round" stroke-linecap="round"/>
        <path d="M 1 43 L 202 43 M 1 95 L 202 95 " fill="none" stroke="#5e5ca7" stroke-width="2" stroke-linejoin="round" stroke-linecap="round"/>
      </g>
      <text x="0" y="0" width="78.3" height="16.85" transform="translate(60.5,4)">
        <tspan x="1.45" y="11.450043296813964" style="font-family:Arial;font-size:12px;fill:#000000;font-weight:bold;">&lt;&lt;Interface&gt;&gt;</tspan>
      </text>
      <text x="0" y="0" width="56.85" height="16.85" transform="translate(71.5,22)">
        <tspan x="1.4" y="11.450043296813964" style="font-family:Arial;font-size:12px;fill:#000000;font-weight:bold;">IMService</tspan>
      </text>
      <text x="0" y="0" width="84" height="16.85" transform="translate(6,98)">
        <tspan x="1.4" y="11.400043296813966" style="font-family:Arial;font-size:12px;fill:#000000;">+ sendMessage</tspan>
      </text>
      <text x="0" y="0" width="91.15" height="16.85" transform="translate(6,116)">
        <tspan x="1.4" y="11.400043296813966" style="font-family:Arial;font-size:12px;fill:#000000;">+ deleteMessage</tspan>
      </text>
    </g>
  </g>
  <g id="Connector-i2rei9o0-ko34" transform="translate(-61,-11.15)">
    <g id="graphics">
      
      <path d="M 765 244.97142857142856 L 765 380 L 1090 380 L 1090 805 L 1125 805 " fill="none" stroke="#5e5ca7" stroke-width="2" stroke-linejoin="round" stroke-linecap="round"/>
    </g>
    <rect fill="#ffffff" x="0" y="0" width="18.55" height="12.85" transform="translate(753.7,259.45)"/>
    <text x="0" y="0" width="22.5" height="16.85" transform="translate(753.7,259.45)">
      <tspan x="4.25" y="11.450043296813964" style="font-family:Arial;font-size:12px;fill:#000000;font-weight:bold;">0..1</tspan>
    </text>
    <rect fill="#ffffff" x="0" y="0" width="17.15" height="12.85" transform="translate(1088.85,796.05)"/>
    <text x="0" y="0" width="21.1" height="16.85" transform="translate(1088.85,796.05)">
      <tspan x="4.3" y="11.400043296813966" style="font-family:Arial;font-size:12px;fill:#000000;font-weight:bold;">1..*</tspan>
    </text>
  </g>
  <g id="Class-i2rei9o0-ko35" transform="translate(1064,508.85)">
    <desc>root/umlClass/class?version=3&amp;author=Cinergix</desc>
    <g id="image">
      <g id="graphics">
        
        <rect x="1" y="1" width="201" height="31" fill="none" stroke="#5e5ca7" stroke-width="2" stroke-opacity="0" stroke-linejoin="round" stroke-linecap="round"/>
        <rect x="1" y="32" width="201" height="52" fill="none" stroke="#5e5ca7" stroke-width="2" stroke-opacity="0" stroke-linejoin="round" stroke-linecap="round"/>
        <rect x="1" y="84" width="201" height="115" fill="none" stroke="#5e5ca7" stroke-width="2" stroke-opacity="0" stroke-linejoin="round" stroke-linecap="round"/>
        <defs>
          <linearGradient id="LFFFFFF0" x1="0%" y1="0%" x2="100%" y2="0%">
            <stop offset="0%" style="stop-color:#FFFFFF;stop-opacity:0.8"/>
            <stop offset="100%" style="stop-color:#FAFAFA;stop-opacity:1"/>
          </linearGradient>
        </defs>
        <rect x="1" y="1" width="201" height="198" fill="url(#LFFFFFF0)" stroke="#5e5ca7" stroke-width="2" stroke-linejoin="round" stroke-linecap="round"/>
        <path d="M 1 32 L 202 32 M 1 84 L 202 84 " fill="none" stroke="#5e5ca7" stroke-width="2" stroke-linejoin="round" stroke-linecap="round"/>
      </g>
      <text x="0" y="0" width="72.55" height="16.85" transform="translate(63.5,4)">
        <tspan x="1.45" y="11.450043296813964" style="font-family:Arial;font-size:12px;fill:#000000;font-weight:bold;">Notifications</tspan>
      </text>
      <text x="0" y="0" width="56.85" height="16.85" transform="translate(6,35)">
        <tspan x="1.4" y="12.850043296813965" style="font-family:Arial;font-size:12px;fill:#000000;">- message</tspan>
      </text>
      <text x="0" y="0" width="94" height="16.85" transform="translate(6,87)">
        <tspan x="1.4" y="11.450043296813964" style="font-family:Arial;font-size:12px;fill:#000000;">+ notify(message)</tspan>
      </text>
    </g>
  </g>
  <g id="Connector-i2rei9o0-ko36" transform="translate(-61,-11.15)">
    <g id="graphics">
      
      <path d="M 1225 520 L 1225 349.92857142857144 L 860 349.92857142857144 L 860 184.97142857142856 L 830 184.97142857142856 " fill="none" stroke="#5e5ca7" stroke-width="2" stroke-linejoin="round" stroke-linecap="round"/>
    </g>
    <rect fill="#ffffff" x="0" y="0" width="17.15" height="14.3" transform="translate(1214.4,486.2)"/>
    <text x="0" y="0" width="21.1" height="18.3" transform="translate(1214.4,486.2)">
      <tspan x="4.25" y="12.828620910644531" style="font-family:Arial;font-size:12px;fill:#000000;font-weight:bold;">0..*</tspan>
    </text>
    <rect fill="#ffffff" x="0" y="0" width="5.7" height="14.3" transform="translate(845,175.3)"/>
    <text x="0" y="0" width="9.7" height="18.3" transform="translate(845,175.3)">
      <tspan x="4.3" y="12.828620910644531" style="font-family:Arial;font-size:12px;fill:#000000;font-weight:bold;">1</tspan>
    </text>
  </g>
  <g id="Class-i2rgedxr-ko37" transform="translate(44,628.9)">
    <desc>root/umlClass/class?version=3&amp;author=Cinergix</desc>
    <g id="image">
      <g id="graphics">
        
        <rect x="1" y="1" width="201.00089538097382" height="31" fill="none" stroke="#5e5ca7" stroke-width="2" stroke-opacity="0" stroke-linejoin="round" stroke-linecap="round"/>
        <rect x="1" y="32" width="201.00089538097382" height="60" fill="none" stroke="#5e5ca7" stroke-width="2" stroke-opacity="0" stroke-linejoin="round" stroke-linecap="round"/>
        <rect x="1" y="92" width="201.00089538097382" height="58" fill="none" stroke="#5e5ca7" stroke-width="2" stroke-opacity="0" stroke-linejoin="round" stroke-linecap="round"/>
        <defs>
          <linearGradient id="LFFFFFF0" x1="0%" y1="0%" x2="100%" y2="0%">
            <stop offset="0%" style="stop-color:#FFFFFF;stop-opacity:0.8"/>
            <stop offset="100%" style="stop-color:#FAFAFA;stop-opacity:1"/>
          </linearGradient>
        </defs>
        <rect x="1" y="1" width="201.00089538097382" height="149" fill="url(#LFFFFFF0)" stroke="#5e5ca7" stroke-width="2" stroke-linejoin="round" stroke-linecap="round"/>
        <path d="M 1 32 L 202.00089538097382 32 M 1 92 L 202.00089538097382 92 " fill="none" stroke="#5e5ca7" stroke-width="2" stroke-linejoin="round" stroke-linecap="round"/>
      </g>
      <text x="0" y="0" width="75.45" height="16.85" transform="translate(62,4)">
        <tspan x="1.4" y="11.450043296813964" style="font-family:Arial;font-size:12px;fill:#000000;font-weight:bold;">Adminstrator</tspan>
      </text>
      <text x="0" y="0" width="61.15" height="16.85" transform="translate(6,35)">
        <tspan x="1.45" y="11.400043296813966" style="font-family:Arial;font-size:12px;fill:#000000;">- username</tspan>
      </text>
      <text x="0" y="0" width="38.3" height="16.85" transform="translate(6,53)">
        <tspan x="1.45" y="11.450043296813964" style="font-family:Arial;font-size:12px;fill:#000000;">- email</tspan>
      </text>
      <text x="0" y="0" width="59.7" height="16.85" transform="translate(6,71)">
        <tspan x="1.45" y="11.400043296813966" style="font-family:Arial;font-size:12px;fill:#000000;">- password</tspan>
      </text>
      <text x="0" y="0" width="71.15" height="16.85" transform="translate(6,95)">
        <tspan x="1.45" y="11.400043296813966" style="font-family:Arial;font-size:12px;fill:#000000;">+ blockUser()</tspan>
      </text>
      <text x="0" y="0" width="84" height="16.85" transform="translate(6,113)">
        <tspan x="1.45" y="11.400043296813966" style="font-family:Arial;font-size:12px;fill:#000000;">+ unblockUser()</tspan>
      </text>
      <text x="0" y="0" width="6.85" height="15.45" transform="translate(6,131)">
        <tspan x="1.45" y="10.021465682983397" style="font-family:Times Roman;font-size:12px;fill:#000000;"></tspan>
      </text>
    </g>
  </g>
  <g id="Connector-i2rgedxr-ko38" transform="translate(-61,-11.15)">
    <g id="graphics">
      
      <path d="M 105 685.05 L 65 685.05 L 65 24.971428571428568 L 685 24.971428571428568 L 685 44.97142857142857 " fill="none" stroke="#5e5ca7" stroke-width="2" stroke-dasharray="5,5" stroke-linejoin="round" stroke-linecap="round"/>
    </g>
    <g id="toIcon" transform="translate(685,44.95) rotate(180)">
      <metadata id="metadata3157">
        <aaa:RDF xmlns:aaa="http://www.w3.org/1999/02/22-rdf-syntax-ns#"></aaa:RDF>
      </metadata>
      <defs id="defs3155"/>
      <aaa:namedview pagecolor="#ffffff" bordercolor="#666666" borderopacity="1" objecttolerance="10" gridtolerance="10" guidetolerance="10" aab:pageopacity="0" aab:pageshadow="2" aab:window-width="1366" aab:window-height="706" id="namedview3153" showgrid="true" aab:zoom="256" aab:cx="1.1414314" aab:cy="9.6660507" aab:window-x="-8" aab:window-y="-8" aab:window-maximized="1" aab:current-layer="Layer_1" xmlns:aaa="http://sodipodi.sourceforge.net/DTD/sodipodi-0.dtd" xmlns:aab="http://www.inkscape.org/namespaces/inkscape"></aaa:namedview>
      <polyline points="-8,8 0,0 8,8  " id="polyline3151" transform="translate(0.00331331,0.73371025)" style="stroke-width:2;stroke:#5e5ca7;fill:none;" stroke="#5e5ca7" stroke-width="2"/>
    </g>
  </g>
</svg>